<svg width="32" height="32" viewBox="0 0 32 32" fill="none" xmlns="http://www.w3.org/2000/svg">
  <!-- Background circle with gradient -->
  <defs>
    <linearGradient id="bgGradient" x1="0%" y1="0%" x2="100%" y2="100%">
      <stop offset="0%" style="stop-color:#1e3a8a;stop-opacity:1" />
      <stop offset="100%" style="stop-color:#3b82f6;stop-opacity:1" />
    </linearGradient>
    <linearGradient id="goldGradient" x1="0%" y1="0%" x2="100%" y2="100%">
      <stop offset="0%" style="stop-color:#fbbf24;stop-opacity:1" />
      <stop offset="100%" style="stop-color:#f59e0b;stop-opacity:1" />
    </linearGradient>
    <linearGradient id="shieldGradient" x1="0%" y1="0%" x2="100%" y2="100%">
      <stop offset="0%" style="stop-color:#10b981;stop-opacity:1" />
      <stop offset="100%" style="stop-color:#059669;stop-opacity:1" />
    </linearGradient>
  </defs>
  
  <!-- Main background circle -->
  <circle cx="16" cy="16" r="15" fill="url(#bgGradient)" stroke="#1e40af" stroke-width="1"/>
  
  <!-- Graduation cap (simplified) -->
  <g transform="translate(8, 6)">
    <!-- Cap base -->
    <rect x="2" y="4" width="12" height="1.5" rx="0.75" fill="url(#goldGradient)"/>
    <!-- Cap top -->
    <path d="M3 4 L8 1 L13 4 L8 7 Z" fill="url(#goldGradient)" stroke="#d97706" stroke-width="0.25"/>
    <!-- Tassel -->
    <line x1="13" y1="4" x2="15" y2="3" stroke="#d97706" stroke-width="1" stroke-linecap="round"/>
    <circle cx="15" cy="3" r="0.5" fill="#d97706"/>
  </g>
  
  <!-- Shield with lock (simplified) -->
  <g transform="translate(10, 14)">
    <!-- Shield background -->
    <path d="M6 1 L10 3 L10 8 C10 10 8 12 6 12 C4 12 2 10 2 8 L2 3 Z" fill="url(#shieldGradient)" stroke="#047857" stroke-width="0.25"/>
    <!-- Lock body -->
    <rect x="4" y="5" width="4" height="3" rx="0.5" fill="#ffffff" stroke="#047857" stroke-width="0.25"/>
    <!-- Lock shackle -->
    <path d="M5 5 L5 3.5 C5 2.5 5.5 2 6 2 C6.5 2 7 2.5 7 3.5 L7 5" fill="none" stroke="#047857" stroke-width="0.5" stroke-linecap="round"/>
  </g>
  
  <!-- Blockchain nodes (simplified) -->
  <g transform="translate(4, 20)">
    <!-- Node 1 -->
    <circle cx="2" cy="2" r="1" fill="#fbbf24" stroke="#d97706" stroke-width="0.25"/>
    <!-- Node 2 -->
    <circle cx="10" cy="2" r="1" fill="#fbbf24" stroke="#d97706" stroke-width="0.25"/>
    <!-- Node 3 -->
    <circle cx="6" cy="6" r="1" fill="#fbbf24" stroke="#d97706" stroke-width="0.25"/>
    <!-- Connection lines -->
    <line x1="3" y1="2" x2="9" y2="2" stroke="#d97706" stroke-width="0.5" stroke-dasharray="0.5,0.5"/>
    <line x1="3" y1="3" x2="5" y2="5" stroke="#d97706" stroke-width="0.5" stroke-dasharray="0.5,0.5"/>
    <line x1="9" y1="3" x2="7" y2="5" stroke="#d97706" stroke-width="0.5" stroke-dasharray="0.5,0.5"/>
  </g>
  
  <!-- FHE text (simplified) -->
  <g transform="translate(20, 4)">
    <text x="4" y="6" font-family="monospace" font-size="4" font-weight="bold" fill="#10b981">FHE</text>
  </g>
</svg>
